# xmcd
#
# Track frame offsets:
#	150
#	15255
#	30068
#	46000
#	61497
#	77848
#	96062
#	109555
#	122511
#	136946
#	152012
#	165763
#	176871
#	187448
#	205513
#	218575
#	233190
#	249298
#	263135
#	280765
#	297582
#	314068
#
# Disc length: 4415 seconds
#
# Revision: 2
# Processed by: cddbd v1.4PL0 Copyright (c) Steve Scherf et al.
# Submitted via: audiograbber 1.80
#
DISCID=22113d16
DTITLE=Various Country Artists -  C C - The Mid- '80s - Hot Hits
DYEAR=1900
DGENRE=
TTITLE0=Roseanne Cash - I Don't Know Why You Don't Want Me
TTITLE1=Steve Wariner - Life's Highway
TTITLE2=The Judds - Why Not Me
TTITLE3=John Schneider - What's A Memory Like You (Doing In A Love Like This)
TTITLE4=Reba McEntire - Somebody Should Leave
TTITLE5=Alabama - (There's A) Fire In The Night
TTITLE6=The Kendalls - Thank God For The Radio
TTITLE7=Willie Nelson - Forgiving You Was Easy
TTITLE8=Merle Haggard and Janie Fricke - Natural High
TTITLE9=George Jones - Who's Gonna Fill Their Shoes
TTITLE10=Randy Travis - 1982
TTITLE11=Ricky Shaggs - Uncle Pen
TTITLE12=The Statler Brothers - Hello Mary Lou
TTITLE13=Hank Williams Jr. - Country State Of Mind
TTITLE14=George Strait - The Chair
TTITLE15=Charly McClain - Radio Heart
TTITLE16=The Oak Ridge Boys - Touch A Hand, Make A Friend
TTITLE17=T. Graham Brown - I Tell It Like It Used To Be
TTITLE18=Judy Rodman - Until I Met You
TTITLE19=John Conlee - In My Eyes
TTITLE20=Don Williams - That's The Thing About Love
TTITLE21=Barbara Mandrell - Only A Lonely Heart Knows
EXTD=
EXTT0=Cash, Rosanne
EXTT1=Wariner, Steve
EXTT2=Judds
EXTT3=Schneider, John
EXTT4=McEntire, Reba
EXTT5=Alabama
EXTT6=Kendalls
EXTT7=Nelson, Willie
EXTT8=Haggard, Merle and Fricke, Janie
EXTT9=Jones, George
EXTT10=Travis, Randy
EXTT11=Skaggs, Ricky
EXTT12=Statler Brothers
EXTT13=Williams Jr., Hank
EXTT14=Strait, George
EXTT15=McClain, Charly
EXTT16=Oak Ridge Boys
EXTT17=Brown, T. Graham
EXTT18=Rodman, Judy
EXTT19=Conlee, John
EXTT20=Williams, Don
EXTT21=Mandrell, Barbara
PLAYORDER=
